<svg width="140" height="45" viewBox="0 0 140 45" fill="none" xmlns="http://www.w3.org/2000/svg">
<path d="M67.4708 44.9999C67.1582 45.0029 66.8472 44.955 66.55 44.8582C66.2712 44.7637 65.9926 44.6056 65.7141 44.3838L66.0756 43.6188C66.5902 43.9872 67.0553 44.1713 67.4708 44.1713C67.7542 44.1713 67.9725 44.1171 68.1259 44.0087C68.2793 43.8999 68.356 43.7488 68.356 43.5553C68.356 43.4185 68.3076 43.3029 68.2109 43.2085C68.0658 43.0668 67.9735 43.0478 67.7893 43.0101L67.1235 42.8826C66.6747 42.8025 66.3513 42.6573 66.1533 42.4469C65.955 42.2368 65.8558 41.9758 65.8558 41.6638C65.8558 41.4515 65.89 41.252 65.9584 41.0654C66.061 40.7855 66.1328 40.7161 66.2769 40.5769C66.421 40.4376 66.6027 40.3277 66.8226 40.2476C67.0421 40.1675 67.3029 40.1273 67.6052 40.1269C67.8742 40.1269 68.1445 40.1636 68.4161 40.2369C68.6877 40.3101 68.9582 40.4458 69.2275 40.6438L68.866 41.4088C68.6617 41.2817 68.4474 41.1716 68.2251 41.0795C68.0352 41.0005 67.8319 40.9586 67.6262 40.9559C67.3712 40.9559 67.1811 41.0068 67.0561 41.1084C66.9951 41.1569 66.9464 41.219 66.9138 41.2898C66.8813 41.3605 66.8657 41.4379 66.8685 41.5158C66.8685 41.6526 66.9168 41.7587 67.0136 41.8343C67.1103 41.9098 67.2507 41.9665 67.4347 42.0043L68.1005 42.1318C68.5444 42.2122 68.8667 42.3728 69.0673 42.6135C69.2679 42.8545 69.3682 43.1306 69.3682 43.442C69.3682 43.9191 69.2065 44.298 68.8831 44.5788C68.5607 44.8595 68.0899 44.9999 67.4708 44.9999Z" fill="#5D06E9"/>
<path d="M73.9376 41.7414C73.9376 42.242 73.7887 42.6234 73.4911 42.8855C73.1934 43.1477 72.7425 43.2788 72.1384 43.2788H71.1184V44.929H70.1198V40.1973H72.1389C72.743 40.1973 73.1939 40.3295 73.4916 40.5939C73.7889 40.8587 73.9376 41.2412 73.9376 41.7414ZM72.9317 41.7414C72.9317 41.4724 72.8514 41.2813 72.6909 41.1679C72.45 40.9979 72.2893 40.9979 71.9684 40.9979H71.1184V42.4781H71.9684C72.28 42.4781 72.5184 42.4228 72.6836 42.312C72.9312 42.1459 72.9317 42.0106 72.9317 41.7414Z" fill="#5D06E9"/>
<path d="M76.9762 44.9998C76.5935 44.9998 76.2488 44.9396 75.942 44.8191C75.6352 44.6986 75.3742 44.5297 75.1589 44.3125C74.836 43.9866 74.7774 43.8376 74.6596 43.5401C74.5414 43.2428 74.4823 42.917 74.4823 42.5626C74.4823 42.0311 74.5414 41.8826 74.6596 41.5851C74.772 41.2957 74.9432 41.0327 75.1623 40.8128C75.3863 40.5912 75.654 40.4187 75.9483 40.3062C76.2551 40.1857 76.5976 40.1254 76.9757 40.1254C77.3583 40.1254 77.7031 40.1857 78.0099 40.3062C78.3033 40.4185 78.5699 40.5911 78.7924 40.8128C79.0074 41.0303 79.1738 41.2878 79.2917 41.5851C79.4096 41.8825 79.4685 42.2083 79.4685 42.5626C79.4685 43.0941 79.4094 43.2426 79.2917 43.5401C79.1735 43.8375 79.0071 44.0949 78.7924 44.3125C78.4705 44.6388 78.3166 44.6984 78.0099 44.8191C77.7031 44.9397 77.3587 44.9998 76.9762 44.9998ZM76.9762 44.1288C77.1983 44.1288 77.4002 44.091 77.5819 44.0155C77.7636 43.9402 77.9195 43.8341 78.0494 43.6969C78.1794 43.5602 78.2797 43.396 78.3503 43.2045C78.4563 42.9173 78.4568 42.7996 78.4568 42.5636C78.4589 42.3465 78.4228 42.1307 78.3503 41.9261C78.2853 41.7418 78.1828 41.573 78.0494 41.4303C77.9175 41.2927 77.7582 41.1842 77.5819 41.1117C77.3895 41.0341 77.1836 40.9956 76.9762 40.9984C76.7544 40.9984 76.5525 41.0362 76.3704 41.1117C76.1941 41.1842 76.0348 41.2927 75.9029 41.4303C75.7695 41.573 75.667 41.7418 75.602 41.9261C75.5296 42.1308 75.4938 42.3465 75.496 42.5636C75.496 42.7994 75.5313 43.013 75.602 43.2045C75.708 43.4918 75.7734 43.5602 75.9029 43.6969C76.0328 43.8341 76.1887 43.9402 76.3704 44.0155C76.5525 44.091 76.7544 44.1288 76.9762 44.1288Z" fill="#5D06E9"/>
<path d="M84.039 41.6638C84.039 42.0559 83.941 42.3641 83.7449 42.5885C83.5488 42.8129 83.2691 42.9652 82.9056 43.0453L84.2798 44.9295H83.1108L81.8641 43.1234H81.2193V44.9295H80.2208V40.1977H82.2398C82.8208 40.1977 83.2658 40.3205 83.5749 40.5661C83.884 40.8116 84.0386 41.1775 84.039 41.6638ZM83.0331 41.6706C83.0331 41.4296 82.9587 41.2572 82.8099 41.1533C82.6607 41.0494 82.414 40.9974 82.0698 40.9974H81.2198V42.3364H82.0698C82.4052 42.3364 82.6495 42.2832 82.8026 42.1767C82.9563 42.0712 83.0331 41.9025 83.0331 41.6706Z" fill="#5D06E9"/>
<path d="M85.8382 44.929V41.0688H84.4498V40.1973H88.2255V41.0688H86.8372V44.929H85.8382Z" fill="#5D06E9"/>
<path d="M90.399 44.9999C90.0864 45.0029 89.7754 44.955 89.4782 44.8582C89.1994 44.7637 88.9208 44.6056 88.6423 44.3838L89.0039 43.6188C89.5184 43.9872 89.9835 44.1713 90.399 44.1713C90.6824 44.1713 90.9007 44.1171 91.0541 44.0087C91.2075 43.8999 91.2842 43.7488 91.2842 43.5553C91.2842 43.4185 91.2359 43.3029 91.1391 43.2085C90.9941 43.0668 90.9017 43.0478 90.7175 43.0101L90.0517 42.8826C89.6029 42.8025 89.2795 42.6573 89.0815 42.4469C88.8832 42.2368 88.784 41.9758 88.784 41.6638C88.784 41.4515 88.8182 41.252 88.8866 41.0654C88.9892 40.7855 89.061 40.7161 89.2051 40.5769C89.3492 40.4376 89.531 40.3277 89.7508 40.2476C89.9703 40.1675 90.2312 40.1273 90.5334 40.1269C90.8024 40.1269 91.0727 40.1636 91.3443 40.2369C91.6159 40.3101 91.8864 40.4458 92.1557 40.6438L91.7942 41.4088C91.59 41.2817 91.3756 41.1716 91.1533 41.0795C90.9634 41.0005 90.7601 40.9586 90.5544 40.9559C90.2994 40.9559 90.1094 41.0068 89.9843 41.1084C89.9234 41.1569 89.8746 41.219 89.8421 41.2898C89.8095 41.3605 89.794 41.4379 89.7967 41.5158C89.7967 41.6526 89.8451 41.7587 89.9418 41.8343C90.0385 41.9098 90.1789 41.9665 90.3629 42.0043L91.0287 42.1318C91.4726 42.2122 91.7949 42.3728 91.9955 42.6135C92.1961 42.8545 92.2964 43.1306 92.2964 43.442C92.2964 43.9191 92.1347 44.298 91.8113 44.5788C91.4883 44.8595 91.0175 44.9999 90.399 44.9999Z" fill="#5D06E9"/>
<path d="M95.4229 43.8665C95.1112 43.8665 94.8634 43.7756 94.6793 43.5939C94.4033 43.3213 94.4033 43.1821 94.4033 42.9031C94.4033 42.6244 94.4953 42.3941 94.6793 42.2124C94.9554 41.9398 95.1117 41.9398 95.4229 41.9398C95.7296 41.9398 95.9752 42.0307 96.1595 42.2124C96.436 42.485 96.4355 42.6242 96.4355 42.9031C96.4355 43.1819 96.3435 43.4122 96.1595 43.5939C95.8835 43.8665 95.7296 43.8665 95.4229 43.8665Z" fill="#5D06E9"/>
<path d="M99.93 44.929V41.0688H98.5416V40.1973H102.317V41.0688H100.929V44.929H99.93Z" fill="#5D06E9"/>
<path d="M103.075 44.929V40.1973H106.504V41.0404H104.074V42.0961H106.291V42.8895H104.074V44.0863H106.504V44.9295L103.075 44.929Z" fill="#5D06E9"/>
<path d="M109.605 44.9998C109.222 44.9998 108.878 44.9396 108.571 44.8191C108.264 44.6986 108.003 44.5297 107.788 44.3125C107.465 43.9866 107.406 43.8376 107.289 43.5401C107.17 43.2428 107.111 42.917 107.111 42.5626C107.111 42.0311 107.17 41.8826 107.289 41.5851C107.401 41.2957 107.572 41.0327 107.791 40.8128C108.015 40.5912 108.283 40.4187 108.577 40.3062C108.884 40.1857 109.227 40.1254 109.605 40.1254C109.916 40.1254 110.208 40.1679 110.48 40.2529C110.751 40.3379 111.017 40.4702 111.276 40.6496L110.922 41.4073C110.695 41.2659 110.476 41.1621 110.263 41.0956C109.944 40.996 109.831 40.9965 109.604 40.9965C109.382 40.9965 109.18 41.0342 108.998 41.1098C108.822 41.1822 108.663 41.2907 108.531 41.4283C108.397 41.5711 108.295 41.7399 108.23 41.9241C108.158 42.1288 108.122 42.3446 108.124 42.5616C108.124 42.7974 108.159 43.0111 108.23 43.2026C108.336 43.4898 108.401 43.5582 108.531 43.695C108.661 43.8321 108.817 43.9383 108.998 44.0135C109.18 44.0891 109.382 44.1268 109.604 44.1268C109.831 44.1268 110.05 44.0938 110.263 44.0277C110.582 43.9285 110.695 43.8577 110.922 43.716L111.276 44.4742C111.032 44.6462 110.764 44.78 110.48 44.8708C110.196 44.9585 109.901 45.002 109.605 44.9998Z" fill="#5D06E9"/>
<path d="M115.124 44.929V42.9246H112.985V44.9295H111.987V40.1978H112.985V42.0605H115.124V40.1978H116.123V44.9295L115.124 44.929Z" fill="#5D06E9"/>
<path d="M119.46 43.8665C119.148 43.8665 118.9 43.7756 118.716 43.5939C118.44 43.3213 118.44 43.1821 118.44 42.9031C118.44 42.6244 118.532 42.3941 118.716 42.2124C118.992 41.9398 119.148 41.9398 119.46 41.9398C119.766 41.9398 120.012 42.0307 120.196 42.2124C120.473 42.485 120.472 42.6242 120.472 42.9031C120.472 43.1819 120.38 43.4122 120.196 43.5939C119.92 43.8665 119.767 43.8665 119.46 43.8665Z" fill="#5D06E9"/>
<path d="M126.121 44.929L125.817 44.079H123.798L123.493 44.929H122.41L124.258 40.1973H125.356L127.205 44.929H126.121ZM124.811 41.2388L124.074 43.2646H125.54L124.811 41.2388Z" fill="#5D06E9"/>
<path d="M131.61 41.6638C131.61 42.0559 131.512 42.3641 131.316 42.5885C131.12 42.8129 130.84 42.9652 130.477 43.0453L131.851 44.9295H130.682L129.435 43.1235H128.79V44.9295H127.792V40.1978H129.811C130.392 40.1978 130.837 40.3205 131.146 40.5661C131.455 40.8117 131.61 41.1775 131.61 41.6638ZM130.604 41.6706C130.604 41.4296 130.53 41.2572 130.381 41.1533C130.232 41.0494 129.985 40.9974 129.641 40.9974H128.791V42.3365H129.641C129.976 42.3365 130.221 42.2832 130.374 42.1767C130.527 42.0712 130.604 41.9025 130.604 41.6706Z" fill="#5D06E9"/>
<path d="M133.409 44.929V41.0688H132.02V40.1973H135.796V41.0688H134.408V44.929H133.409Z" fill="#5D06E9"/>
<path d="M137.97 44.9999C137.658 45.0029 137.347 44.955 137.049 44.8582C136.771 44.7637 136.492 44.6056 136.213 44.3838L136.575 43.6188C137.09 43.9872 137.555 44.1713 137.97 44.1713C138.253 44.1713 138.472 44.1171 138.625 44.0087C138.779 43.8999 138.855 43.7488 138.855 43.5553C138.855 43.4185 138.807 43.3029 138.71 43.2085C138.565 43.0668 138.473 43.0478 138.289 43.0101L137.623 42.8826C137.174 42.8025 136.851 42.6573 136.653 42.4469C136.454 42.2368 136.355 41.9758 136.355 41.6638C136.355 41.4515 136.389 41.252 136.458 41.0654C136.56 40.7855 136.632 40.7161 136.776 40.5769C136.92 40.4376 137.102 40.3277 137.322 40.2476C137.541 40.1675 137.802 40.1273 138.104 40.1269C138.373 40.1269 138.644 40.1636 138.915 40.2369C139.187 40.3101 139.457 40.4458 139.727 40.6438L139.365 41.4088C139.161 41.2817 138.947 41.1716 138.724 41.0795C138.534 41.0005 138.331 40.9586 138.125 40.9559C137.87 40.9559 137.68 41.0068 137.555 41.1084C137.494 41.1569 137.446 41.219 137.413 41.2898C137.381 41.3605 137.365 41.4379 137.368 41.5158C137.368 41.6526 137.416 41.7587 137.513 41.8343C137.61 41.9098 137.75 41.9665 137.934 42.0043L138.6 42.1318C139.044 42.2122 139.366 42.3728 139.567 42.6135C139.767 42.8545 139.868 43.1306 139.868 43.442C139.868 43.9191 139.706 44.298 139.382 44.5788C139.06 44.8595 138.589 44.9999 137.97 44.9999Z" fill="#5D06E9"/>
<path d="M69.9222 7.57488C67.1168 7.57488 65.7141 6.3124 65.7141 3.78744C65.7141 1.26248 67.1168 0 69.9222 0H78.3378V2.52512H70.3423C68.9396 2.52512 68.2383 2.94589 68.2383 3.78744C68.2383 4.62898 68.9396 5.04976 70.3423 5.04976H74.1302C76.9353 5.04976 78.3378 6.31223 78.3378 8.83719C78.3378 11.3622 76.9353 12.6246 74.1302 12.6246H65.7141V10.0995H73.7096C75.1123 10.0995 75.8136 9.67874 75.8136 8.83719C75.8136 7.57488 75.1121 7.57488 73.7096 7.57488H69.9222Z" fill="#5D06E9"/>
<path d="M90.9624 3.8147e-06H93.4875V8.41659C93.4875 11.222 92.0848 12.6246 89.2795 12.6246H85.0714C82.2661 12.6246 80.8634 11.222 80.8634 8.41659V3.8147e-06H83.3885V8.07121C83.3885 9.42341 84.0618 10.0995 85.4085 10.0995H88.9351C90.2866 10.0995 90.9625 9.42065 90.9629 8.06291L90.9624 3.8147e-06Z" fill="#5D06E9"/>
<path d="M98.5361 12.6246H96.012V0H104.429C107.234 0 108.636 1.26248 108.636 3.78744C108.636 6.31207 107.234 7.57455 104.429 7.57488H98.5366L98.5361 12.6246ZM104.007 5.04976C105.41 5.04976 106.111 4.62898 106.111 3.78744C106.111 2.94589 105.41 2.52512 104.007 2.52512H98.5356V5.04976H104.007Z" fill="#5D06E9"/>
<path d="M113.687 10.0995H123.786V12.6246H111.162V3.8147e-06H123.786V2.52513H113.687V5.04976H123.786V7.57488H113.687V10.0995Z" fill="#5D06E9"/>
<path d="M130.064 7.57488H128.836V12.6246H126.31V3.8147e-06H134.727C137.532 3.8147e-06 138.935 1.26248 138.935 3.78744C138.935 6.31208 137.532 7.57455 134.727 7.57488H133.944L139.87 12.6246H135.989L130.064 7.57488ZM134.306 5.04976C135.709 5.04976 136.41 4.62899 136.41 3.78744C136.41 2.9459 135.709 2.52513 134.306 2.52513H128.836V5.04976H134.306Z" fill="#5D06E9"/>
<path d="M91.1388 17.2924L83.901 33.9702H87.8941L89.3035 30.7167H96.7884L98.1988 33.9702H102.18L94.9433 17.2924H91.1388ZM95.1905 27.0534H90.8906L93.0411 22.1008L95.1905 27.0534Z" fill="#5D06E9"/>
<path d="M103.671 22.3778C103.671 25.752 105.564 27.4627 109.299 27.4627H114.179C116.685 27.4627 116.685 28.5331 116.685 28.8853C116.685 29.237 116.685 30.3074 114.179 30.3074H103.671V33.9702H114.721C118.455 33.9702 120.348 32.2595 120.348 28.8853C120.348 25.5111 118.455 23.7999 114.721 23.7999H109.841C107.334 23.7999 107.334 22.7295 107.334 22.3778C107.334 22.0261 107.334 20.9558 109.841 20.9558H120.348V17.2924H109.298C105.564 17.2924 103.671 19.0037 103.671 22.3778Z" fill="#5D06E9"/>
<path d="M139.869 20.9558V17.2924H123.192V33.9702H139.869V30.3069H126.855V27.4627H139.869V23.7999H126.855V20.9558H139.869Z" fill="#5D06E9"/>
<path d="M81.0573 25.6313C81.943 25.1169 82.391 24.0256 82.391 22.3778C82.391 19.0036 80.498 17.2924 76.7643 17.2924H65.7141V33.9702H76.7643C80.498 33.9702 82.391 32.2594 82.391 28.8853C82.391 27.238 81.943 26.1462 81.0573 25.6313ZM76.222 30.3068H69.377V27.4627H76.7643C78.5244 27.4627 78.7281 28.2741 78.7281 28.8853C78.7281 29.2365 78.7281 30.3068 76.222 30.3068ZM76.7643 23.7999H69.377V20.9562H76.222C78.7281 20.9562 78.7281 22.0266 78.7281 22.3783C78.7281 22.9884 78.5244 23.7999 76.7643 23.7999Z" fill="#5D06E9"/>
<path d="M59.6494 38.9369C59.6494 42.2852 56.9348 44.9998 53.5865 44.9998C50.2382 44.9998 47.5236 42.2852 47.5236 38.9369C47.5236 35.5887 50.2382 32.874 53.5865 32.874C56.9348 32.874 59.6494 35.5887 59.6494 38.9369Z" fill="#5D06E9"/>
<path d="M30.7181 26.1379H14.2817C7.74439 26.1379 2.42546 20.819 2.42546 14.2817C2.42546 7.7444 7.74439 2.42547 14.2817 2.42547H44.9998V7.62939e-06H14.2817C6.39414 7.62939e-06 0 6.39415 0 14.2817C0 22.1692 6.39414 28.5633 14.2817 28.5633H30.7186C31.6551 28.5633 32.4441 29.1642 32.7416 29.9986C32.8715 30.28 32.8739 30.5418 32.8739 30.7177V30.7187C32.8739 30.8945 32.8715 31.1564 32.7416 31.4377C32.4445 32.2721 31.6551 32.873 30.7186 32.873H6.06341C2.71515 32.873 0.000488506 35.5877 0.000488506 38.9359C0.000488506 42.2842 2.71515 44.9989 6.06341 44.9989H30.7186C38.6062 44.9989 45.0003 38.6047 45.0003 30.7172C45.0003 22.8297 38.6057 16.437 30.7181 16.437H14.2817C13.71 16.437 13.1618 16.2099 12.7576 15.8057C12.3534 15.4015 12.1263 14.8533 12.1263 14.2817C12.1263 13.71 12.3534 13.1618 12.7576 12.7576C13.1618 12.3534 13.71 12.1264 14.2817 12.1264H44.9998V9.70138H14.2817C11.756 9.70138 9.70137 11.7561 9.70137 14.2817C9.70137 16.8073 11.756 18.862 14.2817 18.862H30.7181C37.2559 18.862 42.5748 24.1809 42.5748 30.7187C42.5748 31.4548 42.504 32.1744 42.375 32.874H39.8914C40.0546 32.1808 40.1494 31.4612 40.1494 30.7187C40.1494 25.5184 35.9184 21.2874 30.7181 21.2874H14.2817C10.4185 21.2874 7.2759 18.1448 7.2759 14.2817C7.2759 10.4185 10.4185 7.27592 14.2817 7.27592H44.9998V4.85094H14.2817C9.08144 4.85094 4.85093 9.08146 4.85093 14.2817C4.85093 19.4819 9.08144 23.7124 14.2817 23.7124H30.7181C34.5813 23.7124 37.7239 26.8555 37.7239 30.7182C37.7239 31.4705 37.6018 32.1935 37.3814 32.8735H34.7576C35.1135 32.2109 35.2994 31.4703 35.2984 30.7182C35.2989 28.1926 33.2442 26.1379 30.7181 26.1379Z" fill="#5D06E9"/>
</svg>
